<svg width="60" height="60" viewBox="0 0 60 60" fill="none" xmlns="http://www.w3.org/2000/svg">
<mask id="mask0" style="mask-type:alpha" maskUnits="userSpaceOnUse" x="7" y="5" width="44" height="50">
<path fill-rule="evenodd" clip-rule="evenodd" d="M7.5 5.02925H50.1318V54.663H7.5V5.02925Z" fill="white"/>
</mask>
<g mask="url(#mask0)">
<path fill-rule="evenodd" clip-rule="evenodd" d="M18.9328 8.77925C14.7903 8.77925 11.3503 12.1343 11.2528 16.2718V43.0093C11.1603 47.2918 14.5353 50.8193 18.7753 50.9143H38.9353C43.1078 50.7418 46.4128 47.2743 46.3828 43.0243V20.8493L34.7953 8.77925H18.9628H18.9328ZM18.9628 54.6643H18.6903C12.3853 54.5218 7.36526 49.2767 7.50276 42.9692V16.2268C7.64776 10.0243 12.7703 5.02925 18.9278 5.02925H18.9703H35.5953C36.1053 5.02925 36.5928 5.23675 36.9478 5.60425L49.6103 18.7968C49.9453 19.1443 50.1328 19.6118 50.1328 20.0943V43.0093C50.1778 49.2818 45.2928 54.4068 39.0103 54.6618L18.9628 54.6643Z" fill="#4589A9"/>
</g>
<path fill-rule="evenodd" clip-rule="evenodd" d="M48.245 22.4607H41.3575C36.7825 22.4482 33.0625 18.7182 33.0625 14.1482V6.87575C33.0625 5.84075 33.9025 5.00075 34.9375 5.00075C35.9725 5.00075 36.8125 5.84075 36.8125 6.87575V14.1482C36.8125 16.6582 38.855 18.7032 41.3625 18.7107H48.245C49.28 18.7107 50.12 19.5507 50.12 20.5857C50.12 21.6207 49.28 22.4607 48.245 22.4607Z" fill="#4589A9"/>
<path fill-rule="evenodd" clip-rule="evenodd" d="M34.4707 40.271H20.9707C19.9357 40.271 19.0957 39.431 19.0957 38.396C19.0957 37.361 19.9357 36.521 20.9707 36.521H34.4707C35.5057 36.521 36.3457 37.361 36.3457 38.396C36.3457 39.431 35.5057 40.271 34.4707 40.271Z" fill="#FFB536"/>
<path fill-rule="evenodd" clip-rule="evenodd" d="M29.3587 30.891H20.9688C19.9337 30.891 19.0938 30.051 19.0938 29.016C19.0938 27.981 19.9337 27.141 20.9688 27.141H29.3587C30.3938 27.141 31.2337 27.981 31.2337 29.016C31.2337 30.051 30.3938 30.891 29.3587 30.891Z" fill="#FFB536"/>
</svg>
