<svg width="187" height="187" viewBox="0 0 187 187" fill="none" xmlns="http://www.w3.org/2000/svg">
<path d="M93.5 187C145.139 187 187 145.139 187 93.5C187 41.8614 145.139 0 93.5 0C41.8614 0 0 41.8614 0 93.5C0 145.139 41.8614 187 93.5 187Z" fill="#E4E4E4"/>
<path d="M93.5006 171.417C136.533 171.417 171.417 136.532 171.417 93.5002C171.417 50.468 136.533 15.5835 93.5006 15.5835C50.4685 15.5835 15.584 50.468 15.584 93.5002C15.584 136.532 50.4685 171.417 93.5006 171.417Z" fill="#34EAB9"/>
<path d="M86.878 121.676C86.7388 121.676 86.5993 121.673 86.4596 121.666C85.2274 121.607 84.0225 121.282 82.9277 120.713C81.833 120.144 80.8742 119.345 80.1172 118.371L68.1651 103.004C66.7734 101.211 66.1499 98.9383 66.4314 96.6857C66.7129 94.4331 67.8764 92.3841 69.6667 90.9883L70.0966 90.6536C71.8903 89.262 74.1626 88.6385 76.4153 88.92C78.668 89.2015 80.7171 90.3649 82.1132 92.1551C82.7868 93.0213 83.6396 93.7316 84.6132 94.2376C85.5869 94.7436 86.6583 95.0332 87.7543 95.0866C88.8502 95.1401 89.9448 94.956 90.963 94.5472C91.9813 94.1383 92.8991 93.5143 93.6538 92.7178L117.923 67.0996C118.696 66.2833 119.623 65.6272 120.649 65.169C121.676 64.7107 122.783 64.4593 123.908 64.4289C125.032 64.3985 126.151 64.5899 127.201 64.9921C128.251 65.3942 129.212 65.9993 130.028 66.7728L130.424 67.1482C132.073 68.71 133.033 70.8627 133.094 73.1328C133.156 75.4028 132.313 77.6042 130.751 79.2527L93.0922 119.003C92.2927 119.847 91.3292 120.52 90.2607 120.98C89.1922 121.44 88.0412 121.677 86.878 121.676Z" fill="white"/>
</svg>
