<svg width="50" height="50" viewBox="0 0 50 50" fill="none" xmlns="http://www.w3.org/2000/svg">
<rect width="50" height="50" rx="10" fill="#F1F1FA"/>
<path fill-rule="evenodd" clip-rule="evenodd" d="M32.3215 32.417C34.6627 32.417 36.5615 30.899 36.5627 29.026V29.024V26.324C35.0165 26.324 33.764 25.322 33.7627 24.085C33.7627 22.849 35.0152 21.846 36.5615 21.846H36.5627V19.146C36.5652 17.272 34.669 15.752 32.3277 15.75H32.3202H17.6802C15.3377 15.75 13.439 17.268 13.4377 19.142V19.143V21.933C14.9302 21.891 16.1815 22.825 16.234 24.019C16.2352 24.041 16.2365 24.063 16.2365 24.085C16.2377 25.32 14.989 26.322 13.4452 26.324H13.4377V29.024C13.4365 30.897 15.3352 32.417 17.6765 32.417H17.6777H32.3215Z" stroke="#39B6F0" stroke-width="1.5" stroke-linecap="round" stroke-linejoin="round"/>
<path fill-rule="evenodd" clip-rule="evenodd" d="M25.4641 21.063L26.2341 22.31C26.3091 22.432 26.4541 22.517 26.6229 22.537L28.3441 22.738C28.7704 22.788 28.9391 23.206 28.6316 23.445L27.3866 24.415C27.2641 24.51 27.2091 24.647 27.2366 24.782L27.5304 26.152C27.6029 26.491 27.1591 26.749 26.7791 26.589L25.2404 25.942C25.0891 25.878 24.9091 25.878 24.7579 25.942L23.2204 26.589C22.8391 26.749 22.3954 26.491 22.4679 26.152L22.7616 24.782C22.7904 24.647 22.7341 24.51 22.6116 24.415L21.3679 23.445C21.0604 23.206 21.2291 22.788 21.6541 22.738L23.3754 22.537C23.5441 22.517 23.6904 22.432 23.7654 22.31L24.5341 21.063C24.7241 20.755 25.2741 20.755 25.4641 21.063Z" stroke="#39B6F0" stroke-width="1.5" stroke-linecap="round" stroke-linejoin="round"/>
</svg>
